<svg xmlns="http://www.w3.org/2000/svg" version="1.1" xmlns:xlink="http://www.w3.org/1999/xlink" xmlns:svgjs="http://svgjs.dev/svgjs" width="100%" height="100%" viewBox="0 0 1000 600"><rect width="1000" height="600" x="0" y="0" fill="transparent"/><g><rect width="333.3333333333333" height="333.3333333333333" y="224.00360667922473" fill="#fb923c" transform="matrix(0.6194822946938983,0,0,0.6194822946938983,0,57.9866724825977)" x="201.78134155273438"/><path d="M299.59659254257457 465.670269002365Q281.3879521609537 465.670269002365 272.50491753033657 463.17290339446913L272.50491753033657 463.17290339446913L272.50491753033657 448.3783830844021Q286.1613978165522 452.01378871614935 296.84632915160057 452.01378871614935L296.84632915160057 452.01378871614935Q305.7293637822177 452.01378871614935 310.28152387762293 450.4331775719114Q314.83368397302814 448.8209542047888 316.6671929003441 444.61652856111584Q318.4690896047754 440.412102917443 318.4690896047754 431.7503538470192L318.4690896047754 431.7503538470192L318.4690896047754 315.67027141418623L340.5660334012215 315.67027141418623L340.5660334012215 430.8335993833612Q340.5660334012215 444.9642630128482 336.4564444262029 452.3615231678817Q332.37846767406904 459.7587833229152 323.71671860364523 462.6987200511977Q315.0549695332214 465.670269002365 299.59659254257457 465.670269002365L299.59659254257457 465.670269002365ZM411.34580044019566 465.670269002365Q395.6345256664707 465.670269002365 387.0992254875859 462.6987200511977Q378.56392530870113 459.7587833229152 374.80207078541486 452.23507427634263Q371.0718284850134 444.74297745265494 371.0718284850134 430.6123138231679L371.0718284850134 430.6123138231679Q371.0718284850134 418.09387356080356 374.5807852252216 411.1707967490415Q378.1213541883145 404.2161077143946 386.6566543671993 401.2445587632273Q395.1919545460841 398.30462203494477 410.90322931980904 398.30462203494477L410.90322931980904 398.30462203494477L443.90639001149685 398.30462203494477L443.90639001149685 380.7598383339038Q443.90639001149685 374.6270670942607 441.5038610722552 371.3393959142458Q439.10133213301356 368.02011251134616 433.53758090529607 366.66078692730156Q427.9738296775786 365.30146134325696 417.25728611964547 365.30146134325696L417.25728611964547 365.30146134325696Q400.18668576187594 365.30146134325696 379.4806797723591 368.02011251134616L379.4806797723591 368.02011251134616L379.4806797723591 353.0043066410859Q402.0201946891919 350.9495121535766 420.22883507081275 350.9495121535766L420.22883507081275 350.9495121535766Q439.35422991609164 350.9495121535766 448.45855010690207 353.7946122132049Q457.5628702977125 356.63971227283315 460.9769903692664 363.6892379761343Q464.3911104408203 370.77037590232015 464.3911104408203 385.5648962123871L464.3911104408203 385.5648962123871L464.3911104408203 463.3941889546624L444.57024669207675 463.3941889546624L444.57024669207675 452.9305431798074Q442.07288108418084 465.670269002365 411.34580044019566 465.670269002365L411.34580044019566 465.670269002365ZM410.65033153673096 452.23507427634263L414.75992051174956 452.23507427634263Q425.9190351900693 452.23507427634263 433.6640297968351 450.65446313210475L433.6640297968351 450.65446313210475Q443.90639001149685 448.59966864459545 443.90639001149685 441.0759595980229L443.90639001149685 441.0759595980229L443.90639001149685 411.04434785750243L412.26255490385364 411.04434785750243Q402.4627658095785 411.04434785750243 398.13189127436664 412.53012233308607Q393.83262896203945 414.0158968086697 392.4416911551101 418.09387356080356Q391.0823655710655 422.20346253582215 391.0823655710655 431.3077827266326L391.0823655710655 431.3077827266326Q391.0823655710655 439.495348453785 392.6945889381882 443.9210596576512Q394.27520008242607 448.3783830844021 398.38478905744466 450.30672868037243Q402.4627658095785 452.23507427634263 410.65033153673096 452.23507427634263L410.65033153673096 452.23507427634263Z " fill="white" transform="matrix(0.6194822946938983,0,0,0.6194822946938983,0,57.9866724825977)"/><path d="M637.8547110978179 431.4311400966951Q624.8112339186205 431.4311400966951 618.4480098086301 429.64219096968714L618.4480098086301 429.64219096968714L618.4480098086301 419.0443657615892Q628.2306176930281 421.648532212297 635.8846025655433 421.648532212297L635.8846025655433 421.648532212297Q642.2478266755338 421.648532212297 645.5086959703331 420.51628592938056Q648.7695652651325 419.3613947208058 650.0829709533156 416.3496196082481Q651.3737317158403 413.3378444956903 651.3737317158403 407.1331348653082L651.3737317158403 407.1331348653082L651.3737317158403 323.9809678479244L667.2025347510123 323.9809678479244L667.2025347510123 406.4764320212166Q667.2025347510123 416.5987137904897 664.2586944154295 421.89762639453863Q661.337499005505 427.1965389985876 655.1327893751229 429.30251708481217Q648.9280797447408 431.4311400966951 637.8547110978179 431.4311400966951L637.8547110978179 431.4311400966951ZM717.9045233000107 431.4311400966951Q706.6499952478212 431.4311400966951 700.5358653200724 429.30251708481217Q694.4217353923236 427.1965389985876 691.7269892389825 421.8070466919053Q689.0548880112997 416.4401993108814 689.0548880112997 406.3179175416083L689.0548880112997 406.3179175416083Q689.0548880112997 397.3505269809101 691.5684747593741 392.39128826173607Q694.104706433107 387.40940461690366 700.2188363608558 385.28078160502076Q706.3329662886047 383.1748035187962 717.587494340794 383.1748035187962L717.587494340794 383.1748035187962L741.2287967280895 383.1748035187962L741.2287967280895 370.60686977842363Q741.2287967280895 366.2137542007078 739.5077823780565 363.8586819322416Q737.7867680280235 361.48096473811705 733.8012611121576 360.50723293480894Q729.8157541962918 359.53350113150077 722.1391243981182 359.53350113150077L722.1391243981182 359.53350113150077Q709.9108645426206 359.53350113150077 695.0784382364152 361.48096473811705L695.0784382364152 361.48096473811705L695.0784382364152 350.7246250504108Q711.2242702308037 349.2527048826194 724.2677474100011 349.2527048826194L724.2677474100011 349.2527048826194Q737.9679274332901 349.2527048826194 744.4896660228889 351.29074819186906Q751.0114046124876 353.32879150111864 753.4570565835871 358.378609922926Q755.9027085546867 363.4510732703917 755.9027085546867 374.0488984784896L755.9027085546867 374.0488984784896L755.9027085546867 429.80070544929544L741.7043401669144 429.80070544929544L741.7043401669144 422.30523505638854Q739.9153910399065 431.4311400966951 717.9045233000107 431.4311400966951L717.9045233000107 431.4311400966951ZM717.4063349355275 421.8070466919053L720.3501752711102 421.8070466919053Q728.3438340285003 421.8070466919053 733.891840814791 420.67480040898886L733.891840814791 420.67480040898886Q741.2287967280895 419.2028802411975 741.2287967280895 413.8133879345152L741.2287967280895 413.8133879345152L741.2287967280895 392.30070855910276L718.5612261441022 392.30070855910276Q711.5412991900203 392.30070855910276 708.4389443748291 393.3650200650442Q705.3592344852965 394.42933157098565 704.36285775633 397.3505269809101Q703.3891259530219 400.29436731649287 703.3891259530219 406.8161059060916L703.3891259530219 406.8161059060916Q703.3891259530219 412.68114165159875 704.5440171615967 415.8514312437648Q705.6762634445131 419.0443657615892 708.6201037800959 420.42570622674725Q711.5412991900203 421.8070466919053 717.4063349355275 421.8070466919053L717.4063349355275 421.8070466919053ZM811.1563271610092 465.6702676920885Q795.033140092279 465.6702676920885 783.9371265196978 463.8813185650805L783.9371265196978 463.8813185650805L783.9371265196978 453.44200783659085Q803.5023422884941 455.72914532808204 812.4697328491923 455.72914532808204L812.4697328491923 455.72914532808204Q823.7242609013819 455.72914532808204 828.8646590258224 452.12860214840777Q833.9824122246048 448.55070389439175 833.9824122246048 440.24001617778504L833.9824122246048 440.24001617778504L833.9824122246048 421.3315032530804Q833.6653832653882 426.5398361544961 826.8945504935479 428.98548812559557Q820.1237177217075 431.4311400966951 809.8655663984845 431.4311400966951L809.8655663984845 431.4311400966951Q797.6373065429868 431.4311400966951 790.8664737711465 429.1440026052039Q784.0956409993062 426.8568651137127 781.2423803663568 421.648532212297Q778.3891197334073 416.4401993108814 778.3891197334073 407.4728087501831L778.3891197334073 407.4728087501831L778.3891197334073 375.3396592410144Q778.3891197334073 361.32245025850875 785.9751698289475 355.29890003339324Q793.5612199244877 349.2527048826194 810.8392982017926 349.2527048826194L810.8392982017926 349.2527048826194Q831.378245773897 349.2527048826194 834.9787889535712 358.5597693281926L834.9787889535712 358.5597693281926L834.9787889535712 350.8831395300191L848.656324051202 350.8831395300191L848.656324051202 437.2961758422023Q848.656324051202 448.23367493517515 844.5802374327027 454.415739639899Q840.5041508142035 460.62044927028114 832.3519775772052 463.1340360183556Q824.1998043402067 465.6702676920885 811.1563271610092 465.6702676920885L811.1563271610092 465.6702676920885ZM812.9679212136755 421.648532212297Q824.5394782250816 421.648532212297 829.2722676876723 418.8858512819809Q833.9824122246048 416.1005254260064 833.9824122246048 408.4465405534913L833.9824122246048 408.4465405534913L833.9824122246048 372.7354927903065Q833.9824122246048 367.34600048362427 832.2840428002302 364.5833195533081Q830.5630284501971 361.82063862299196 826.0113983928729 360.59781263744225Q821.4371234098905 359.37498665189247 812.6282473288006 359.37498665189247L812.6282473288006 359.37498665189247Q804.3175596121938 359.37498665189247 800.1508932910614 360.50723293480894Q796.0068718955871 361.63947921772535 794.4443720251625 364.4927398506748Q792.9045170803961 367.34600048362427 792.9045170803961 372.7354927903065L792.9045170803961 372.7354927903065L792.9045170803961 408.4465405534913Q792.9045170803961 413.99454733978183 794.5349517277958 416.757228270098Q796.1653863751955 419.5199092004141 800.399987473303 420.58422070635555Q804.6345885714105 421.648532212297 812.9679212136755 421.648532212297L812.9679212136755 421.648532212297ZM901.4869356120834 431.4311400966951Q886.3374803466612 431.4311400966951 880.2233504189124 425.9737130130378Q874.1092204911637 420.51628592938056 874.1092204911637 408.7635695127079L874.1092204911637 408.7635695127079L874.1092204911637 350.8831395300191L888.7831323177608 350.8831395300191L888.7831323177608 407.948352189008Q888.7831323177608 411.05070700419907 889.349255459219 412.93023583384036Q889.9153786006772 414.8097646634817 891.3872987684687 416.757228270098L891.3872987684687 416.757228270098Q894.3084941783931 420.99182936820546 905.7215367101909 420.99182936820546L905.7215367101909 420.99182936820546Q917.7912820860801 420.99182936820546 922.6825860282792 418.70469187671426L922.6825860282792 418.70469187671426Q927.4153754908699 416.4401993108814 927.4153754908699 410.39400416010756L927.4153754908699 410.39400416010756L927.4153754908699 350.8831395300191L942.0892873174671 350.8831395300191L942.0892873174671 429.80070544929544L927.4153754908699 429.80070544929544L927.4153754908699 420.17661204450565Q925.2867524789871 431.4311400966951 901.4869356120834 431.4311400966951L901.4869356120834 431.4311400966951ZM991.8175440631574 431.4311400966951Q980.5630160109679 431.4311400966951 974.4488860832191 429.30251708481217Q968.3347561554702 427.1965389985876 965.6400100021291 421.8070466919053Q962.9679087744463 416.4401993108814 962.9679087744463 406.3179175416083L962.9679087744463 406.3179175416083Q962.9679087744463 397.3505269809101 965.4814955225208 392.39128826173607Q968.0177271962538 387.40940461690366 974.1318571240025 385.28078160502076Q980.2459870517513 383.1748035187962 991.5005151039408 383.1748035187962L991.5005151039408 383.1748035187962L1015.1418174912361 383.1748035187962L1015.1418174912361 370.60686977842363Q1015.1418174912361 366.2137542007078 1013.4208031412032 363.8586819322416Q1011.6997887911701 361.48096473811705 1007.7142818753043 360.50723293480894Q1003.7287749594385 359.53350113150077 996.0521451612649 359.53350113150077L996.0521451612649 359.53350113150077Q983.8238853057672 359.53350113150077 968.9914589995618 361.48096473811705L968.9914589995618 361.48096473811705L968.9914589995618 350.7246250504108Q985.1372909939504 349.2527048826194 998.1807681731478 349.2527048826194L998.1807681731478 349.2527048826194Q1011.8809481964369 349.2527048826194 1018.4026867860356 351.29074819186906Q1024.9244253756342 353.32879150111864 1027.370077346734 358.378609922926Q1029.8157293178333 363.4510732703917 1029.8157293178333 374.0488984784896L1029.8157293178333 374.0488984784896L1029.8157293178333 429.80070544929544L1015.6173609300612 429.80070544929544L1015.6173609300612 422.30523505638854Q1013.8284118030531 431.4311400966951 991.8175440631574 431.4311400966951L991.8175440631574 431.4311400966951ZM991.3193556986741 421.8070466919053L994.2631960342569 421.8070466919053Q1002.256854791647 421.8070466919053 1007.8048615779377 420.67480040898886L1007.8048615779377 420.67480040898886Q1015.1418174912361 419.2028802411975 1015.1418174912361 413.8133879345152L1015.1418174912361 413.8133879345152L1015.1418174912361 392.30070855910276L992.4742469072489 392.30070855910276Q985.4543199531669 392.30070855910276 982.3519651379759 393.3650200650442Q979.2722552484432 394.42933157098565 978.2758785194767 397.3505269809101Q977.3021467161685 400.29436731649287 977.3021467161685 406.8161059060916L977.3021467161685 406.8161059060916Q977.3021467161685 412.68114165159875 978.4570379247433 415.8514312437648Q979.5892842076597 419.0443657615892 982.5331245432425 420.42570622674725Q985.4543199531669 421.8070466919053 991.3193556986741 421.8070466919053L991.3193556986741 421.8070466919053ZM1055.2459808321369 429.80070544929544L1055.2459808321369 350.8831395300191L1069.1046753350338 350.8831395300191L1069.1046753350338 363.7681022296083Q1069.1046753350338 360.00904457032567 1072.3655446298335 356.6802404985513Q1075.6264139246327 353.32879150111864 1080.67623234644 351.29074819186906Q1085.7260507682474 349.2527048826194 1090.6173547104463 349.2527048826194L1090.6173547104463 349.2527048826194L1097.7957961441366 349.2527048826194L1097.7957961441366 361.82063862299196L1089.6436229071383 361.82063862299196Q1079.2043121786487 361.82063862299196 1074.5621024186912 364.4927398506748Q1069.9198926587337 367.18748600401597 1069.9198926587337 374.2074129580979L1069.9198926587337 374.2074129580979L1069.9198926587337 429.80070544929544L1055.2459808321369 429.80070544929544ZM1113.443439774042 429.80070544929544L1113.443439774042 323.9809678479244L1151.2831105491096 323.9809678479244Q1164.802131167132 323.9809678479244 1172.795789924522 326.7662937038988L1172.795789924522 326.7662937038988Q1180.1327458378207 329.37046015460663 1182.6689775115535 333.28803229349757Q1185.1825642596282 337.1829595067301 1185.1825642596282 344.04437198120377L1185.1825642596282 344.04437198120377L1185.1825642596282 358.2200954433177Q1185.1825642596282 364.5833195533081 1181.6046660056122 368.0932830303491Q1178.0041228259379 371.6032465073901 1170.6671669126395 373.2336811547898L1170.6671669126395 373.2336811547898L1170.6671669126395 373.867739073223Q1179.317528514121 375.3396592410144 1184.6164411181699 379.8233545213635Q1189.9153537222187 384.30704980171265 1189.9153537222187 390.9873028709196L1189.9153537222187 390.9873028709196L1189.9153537222187 408.7635695127079Q1189.9153537222187 420.33512652411395 1181.2649921207371 425.0679159867047Q1172.637275444914 429.80070544929544 1152.4153568320262 429.80070544929544L1152.4153568320262 429.80070544929544L1113.443439774042 429.80070544929544ZM1129.272242809214 370.28984081920703L1151.7586539879346 370.28984081920703Q1161.699776351941 370.28984081920703 1166.024957152682 367.2780657066493Q1170.3501379534227 364.2662905940915 1170.3501379534227 357.7445520044928L1170.3501379534227 357.7445520044928L1170.3501379534227 345.33513274372854Q1170.3501379534227 339.311582518613 1165.9570223757069 336.8659305475135Q1161.5412618723326 334.42027857641403 1151.2831105491096 334.42027857641403L1151.2831105491096 334.42027857641403L1129.272242809214 334.42027857641403L1129.272242809214 370.28984081920703ZM1129.272242809214 418.8858512819809L1152.4153568320262 418.8858512819809Q1164.326587728307 418.8858512819809 1169.217891670506 416.4401993108814L1169.217891670506 416.4401993108814Q1174.1091956127052 413.99454733978183 1174.1091956127052 408.1068666686163L1174.1091956127052 408.1068666686163L1174.1091956127052 392.14219407949446Q1174.1091956127052 387.9075929813869 1172.3881812626723 385.37136130765407Q1170.6671669126395 382.83512963392127 1167.0892686586233 381.7028833510048L1167.0892686586233 381.7028833510048Q1163.5113704046073 380.72915154769663 1160.726044548633 380.480057365455Q1157.9633636183166 380.2309631832134 1152.4153568320262 380.2309631832134L1152.4153568320262 380.2309631832134L1129.272242809214 380.2309631832134L1129.272242809214 418.8858512819809ZM1212.4244098265979 429.80070544929544L1212.4244098265979 315.67028013131767L1227.0983216531952 315.67028013131767L1227.0983216531952 429.80070544929544L1212.4244098265979 429.80070544929544ZM1285.9524834391916 431.4311400966951Q1275.513172710702 431.4311400966951 1270.3048398092867 430.7065024756286Q1265.0738619822125 429.95921992890374 1259.8655290807967 427.5135679578042L1259.8655290807967 427.5135679578042Q1254.4760367741144 425.0679159867047 1252.030384803015 419.61048890304744Q1249.5847328319153 414.15306181939013 1249.5847328319153 404.845997373817L1249.5847328319153 404.845997373817L1249.5847328319153 377.46828225289727Q1249.5847328319153 370.13132633959873 1251.3736819589233 364.5833195533081Q1253.1852760115896 359.03531276701756 1256.1064714215142 355.9329579518265L1256.1064714215142 355.9329579518265Q1258.5521233926136 353.17027702151034 1263.5340070374461 351.63042207674397Q1268.49324575662 350.0679222063193 1273.724223583694 349.5923787674944L1273.724223583694 349.5923787674944Q1279.5892593292012 349.2527048826194 1285.9524834391916 349.2527048826194L1285.9524834391916 349.2527048826194Q1294.4216856354067 349.2527048826194 1298.7468664361475 349.6603135444694Q1303.0720472368882 350.0679222063193 1307.9633511790873 351.38132789450236L1307.9633511790873 351.38132789450236Q1313.013169600895 352.85324806229374 1315.775850531211 355.7744434722182Q1318.5611763871855 358.71828380780096 1320.5086399938016 364.2662905940915L1320.5086399938016 364.2662905940915Q1322.2975891208096 369.97281185999043 1322.2975891208096 377.46828225289727L1322.2975891208096 377.46828225289727L1322.2975891208096 404.845997373817Q1322.2975891208096 418.70469187671426 1315.9570099364776 425.0679159867047L1315.9570099364776 425.0679159867047Q1313.3301985601113 427.67208243741254 1308.4388946179122 429.1440026052039Q1303.5475906757135 430.6159227729953 1298.3392577742977 431.1141111374785L1298.3392577742977 431.1141111374785Q1292.1345481439155 431.4311400966951 1285.9524834391916 431.4311400966951L1285.9524834391916 431.4311400966951ZM1285.9524834391916 421.8070466919053Q1292.7912509880073 421.8070466919053 1295.8936058031984 421.4900177326887Q1298.995960618389 421.1503438478138 1301.9171560283137 419.70106860568075L1301.9171560283137 419.70106860568075Q1304.8609963638962 418.38766291749766 1306.0838223494463 415.3758878049399Q1307.306648334996 412.36411269238215 1307.306648334996 406.9746203856999L1307.306648334996 406.9746203856999L1307.306648334996 375.0226302817978Q1307.306648334996 367.6856743684992 1305.517699207988 364.3342253710665Q1303.72875008098 361.00542129929215 1299.4035692802393 359.9411097933507Q1295.0783884794985 358.8767982874092 1285.9524834391916 358.8767982874092L1285.9524834391916 358.8767982874092Q1276.8265783988852 358.8767982874092 1272.5013975981444 359.9411097933507Q1268.1762167974036 361.00542129929215 1266.3872676703957 364.3342253710665Q1264.5983185433877 367.6856743684992 1264.5983185433877 375.0226302817978L1264.5983185433877 375.0226302817978L1264.5983185433877 406.9746203856999Q1264.5983185433877 412.36411269238215 1265.8211445289373 415.3758878049399Q1267.043970514487 418.38766291749766 1269.9651659244116 419.70106860568075L1269.9651659244116 419.70106860568075Q1272.9090062599942 421.1503438478138 1276.0113610751853 421.4900177326887Q1279.091070964718 421.8070466919053 1285.9524834391916 421.8070466919053L1285.9524834391916 421.8070466919053ZM1374.9696862020826 465.6702676920885Q1358.823854207694 465.6702676920885 1347.7504855607715 463.8813185650805L1347.7504855607715 463.8813185650805L1347.7504855607715 453.44200783659085Q1367.3157013295674 455.72914532808204 1376.2830918902657 455.72914532808204L1376.2830918902657 455.72914532808204Q1387.5149750167968 455.72914532808204 1392.6553731412375 452.12860214840777Q1397.7957712656782 448.55070389439175 1397.7957712656782 440.24001617778504L1397.7957712656782 440.24001617778504L1397.7957712656782 421.3315032530804Q1397.4787423064615 426.5398361544961 1390.7079095346214 428.98548812559557Q1383.9370767627813 431.4311400966951 1373.6562805138994 431.4311400966951L1373.6562805138994 431.4311400966951Q1361.428020658402 431.4311400966951 1354.6798328122202 429.1440026052039Q1347.9090000403796 426.8568651137127 1345.05573940743 421.648532212297Q1342.202478774481 416.4401993108814 1342.202478774481 407.4728087501831L1342.202478774481 407.4728087501831L1342.202478774481 375.3396592410144Q1342.202478774481 361.32245025850875 1349.788528870021 355.29890003339324Q1357.3519340399027 349.2527048826194 1374.6526572428663 349.2527048826194L1374.6526572428663 349.2527048826194Q1395.1916048149703 349.2527048826194 1398.7695030689863 358.5597693281926L1398.7695030689863 358.5597693281926L1398.7695030689863 350.8831395300191L1412.4696830922755 350.8831395300191L1412.4696830922755 437.2961758422023Q1412.4696830922755 448.23367493517515 1408.3935964737764 454.415739639899Q1404.3175098552772 460.62044927028114 1396.1653366182784 463.1340360183556Q1388.01316338128 465.6702676920885 1374.9696862020826 465.6702676920885L1374.9696862020826 465.6702676920885ZM1376.7586353290906 421.648532212297Q1388.3301923404968 421.648532212297 1393.0629818030873 418.8858512819809Q1397.7957712656782 416.1005254260064 1397.7957712656782 408.4465405534913L1397.7957712656782 408.4465405534913L1397.7957712656782 372.7354927903065Q1397.7957712656782 367.34600048362427 1396.0747569156454 364.5833195533081Q1394.3763874912709 361.82063862299196 1389.802112508288 360.59781263744225Q1385.250482450964 359.37498665189247 1376.4416063698743 359.37498665189247L1376.4416063698743 359.37498665189247Q1368.1309186532674 359.37498665189247 1363.9642523321352 360.50723293480894Q1359.7975860110025 361.63947921772535 1358.2577310662361 364.4927398506748Q1356.7178761214698 367.34600048362427 1356.7178761214698 372.7354927903065L1356.7178761214698 372.7354927903065L1356.7178761214698 408.4465405534913Q1356.7178761214698 413.99454733978183 1358.3483107688692 416.757228270098Q1359.978745416269 419.5199092004141 1364.2133465143763 420.58422070635555Q1368.447947612484 421.648532212297 1376.7586353290906 421.648532212297L1376.7586353290906 421.648532212297Z " fill="#fb923c" transform="matrix(0.6194822946938983,0,0,0.6194822946938983,0,57.9866724825977)"/></g></svg>